<?xml version="1.0" encoding="utf-8"?>
<!-- Generator: Adobe Illustrator 13.0.0, SVG Export Plug-In . SVG Version: 6.00 Build 14948)  -->
<!DOCTYPE svg PUBLIC "-//W3C//DTD SVG 1.1//EN" "http://www.w3.org/Graphics/SVG/1.1/DTD/svg11.dtd">
<svg version="1.1" id="Layer_1" xmlns="http://www.w3.org/2000/svg" xmlns:xlink="http://www.w3.org/1999/xlink" x="0px" y="0px"
	 width="127.895px" height="114.784px" viewBox="0 0 127.895 114.784" enable-background="new 0 0 127.895 114.784"
	 xml:space="preserve">
<g>
	<path fill="none" stroke="#ffffff" stroke-width="3" stroke-linecap="round" stroke-linejoin="round" d="M1.5,83.083
		c-0.033,16.567,13.374,29.649,29.939,29.682c16.567,0.032,30.027-13.114,30.06-29.682H1.5z"/>
	<path fill="none" stroke="#ffffff" stroke-width="3" stroke-linecap="round" stroke-linejoin="round" d="M11.541,83.083
		c-0.023,11.025,8.895,20.629,19.918,20.651c11.025,0.022,19.977-9.628,19.999-20.651"/>
	<g>
		<path fill="#ffffff" d="M127.895,14.784l-10,100h-44l-10-100H127.895 M124.579,17.784h-57.37l9.4,94h38.57L124.579,17.784
			L124.579,17.784z"/>
	</g>
	<rect x="82.813" y="102" fill="#ffffff" width="26" height="3"/>
	
		<line fill="none" stroke="#ffffff" stroke-width="3" stroke-linecap="round" stroke-linejoin="round" x1="31.5" y1="83.083" x2="31.5" y2="103.734"/>
	
		<line fill="none" stroke="#ffffff" stroke-width="3" stroke-linecap="round" stroke-linejoin="round" x1="15.375" y1="95" x2="31.625" y2="83.083"/>
	
		<line fill="none" stroke="#ffffff" stroke-width="3" stroke-linecap="round" stroke-linejoin="round" x1="47.625" y1="95" x2="31.375" y2="83.083"/>
	<polyline fill="none" stroke="#ffffff" stroke-width="3" stroke-linecap="round" stroke-linejoin="round" points="53.038,1.5 
		75.038,5.5 82.476,52.813 	"/>
	<g>
		<path fill="none" stroke="#ffffff" stroke-width="3" stroke-linecap="round" stroke-linejoin="round" d="M121.359,56.922
			c-0.35,0.052-0.707,0.078-1.071,0.078c-2.753,0-5.266-1.534-6.567-3.794c-0.414-0.72-1.451-0.72-1.865,0
			c-1.302,2.26-3.814,3.794-6.567,3.794s-5.266-1.534-6.567-3.794c-0.414-0.72-1.451-0.72-1.865,0
			C95.554,55.466,93.041,57,90.288,57s-5.266-1.534-6.567-3.794c-0.414-0.72-1.451-0.72-1.865,0C80.554,55.466,78.041,57,75.288,57
			c-1.959,0-3.736-0.777-5.041-2.04c-0.227-0.219-0.438-0.452-0.635-0.698"/>
	</g>
</g>
</svg>
