<?xml version="1.0" encoding="utf-8"?>
<!-- Generator: Adobe Illustrator 13.0.0, SVG Export Plug-In . SVG Version: 6.00 Build 14948)  -->
<!DOCTYPE svg PUBLIC "-//W3C//DTD SVG 1.1//EN" "http://www.w3.org/Graphics/SVG/1.1/DTD/svg11.dtd">
<svg version="1.1" id="Layer_1" xmlns="http://www.w3.org/2000/svg" xmlns:xlink="http://www.w3.org/1999/xlink" x="0px" y="0px"
	 width="67.508px" height="127.001px" viewBox="0 0 67.508 127.001" enable-background="new 0 0 67.508 127.001"
	 xml:space="preserve">
<g>
	<polyline fill="none" stroke="#ffffff" stroke-width="3" stroke-linecap="round" stroke-linejoin="round" points="33.442,54.175 
		55.261,1.5 59.224,7.018 41.872,74.861 	"/>
	<path fill="none" stroke="#ffffff" stroke-width="3" stroke-linecap="round" stroke-linejoin="round" d="M28.585,88.413
		l-3.813,11.503c0.184,0.162,0.367,0.316,0.544,0.487c5.458,5.438,5.476,14.273,0.034,19.735c-5.44,5.462-14.28,5.485-19.742,0.045
		c-5.467-5.448-5.477-14.288-0.037-19.749c2.862-2.872,6.646-4.234,10.406-4.089l0,0l8.76-21.158"/>
	<path fill="none" stroke="#ffffff" stroke-width="3" stroke-linecap="round" stroke-linejoin="round" d="M10.5,105.347
		c-2.727,2.74-2.723,7.173,0.021,9.904c2.738,2.729,7.171,2.718,9.9-0.021c2.728-2.739,2.718-7.168-0.021-9.896
		C17.656,102.604,13.228,102.61,10.5,105.347z"/>
	<path fill="none" stroke="#ffffff" stroke-width="3" stroke-linecap="round" stroke-linejoin="round" d="M51.48,97.597
		L51.48,97.597L11.306,3.427L7.367,8.961l21.208,79.192l10.266,1.564l3.853,11.486c-0.177,0.161-0.365,0.313-0.536,0.489
		c-5.439,5.462-5.427,14.296,0.036,19.736c5.461,5.439,14.302,5.428,19.742-0.033c5.447-5.471,5.423-14.31-0.034-19.75
		C59.024,98.785,55.235,97.44,51.48,97.597z"/>
	<path fill="none" stroke="#ffffff" stroke-width="3" stroke-linecap="round" stroke-linejoin="round" d="M56.989,106.579
		c2.736,2.727,2.749,7.161,0.018,9.902c-2.729,2.737-7.159,2.745-9.898,0.016c-2.737-2.727-2.748-7.156-0.019-9.895
		C49.82,103.859,54.25,103.852,56.989,106.579z"/>
</g>
</svg>
