<?xml version="1.0" encoding="utf-8"?>
<!-- Generator: Adobe Illustrator 13.0.0, SVG Export Plug-In . SVG Version: 6.00 Build 14948)  -->
<!DOCTYPE svg PUBLIC "-//W3C//DTD SVG 1.1//EN" "http://www.w3.org/Graphics/SVG/1.1/DTD/svg11.dtd">
<svg version="1.1" id="Layer_1" xmlns="http://www.w3.org/2000/svg" xmlns:xlink="http://www.w3.org/1999/xlink" x="0px" y="0px"
	 width="127.939px" height="123.154px" viewBox="0 0 127.939 123.154" enable-background="new 0 0 127.939 123.154"
	 xml:space="preserve">
<g>
	<path fill="none" stroke="#ffffff" stroke-width="3" stroke-linecap="round" stroke-linejoin="round" d="M70.538,92.985
		c0,5.129-5.451,9.287-5.451,9.287s-5.451-4.158-5.451-9.287c0-5.13,5.451-9.287,5.451-9.287S70.538,87.855,70.538,92.985z"/>
	<path fill="none" stroke="#ffffff" stroke-width="3" stroke-linecap="round" stroke-linejoin="round" d="M70.538,112.367
		c0,5.13-5.451,9.287-5.451,9.287s-5.451-4.157-5.451-9.287c0-5.129,5.451-9.287,5.451-9.287S70.538,107.238,70.538,112.367z"/>
	<path fill="none" stroke="#ffffff" stroke-width="3" stroke-linecap="round" stroke-linejoin="round" d="M74.778,108.128
		c-5.13,0-9.287-5.451-9.287-5.451s4.157-5.452,9.287-5.452c5.129,0,9.287,5.452,9.287,5.452S79.907,108.128,74.778,108.128z"/>
	<path fill="none" stroke="#ffffff" stroke-width="3" stroke-linecap="round" stroke-linejoin="round" d="M55.396,108.128
		c-5.129,0-9.287-5.451-9.287-5.451s4.158-5.452,9.287-5.452c5.13,0,9.287,5.452,9.287,5.452S60.525,108.128,55.396,108.128z"/>
	<path fill="none" stroke="#ffffff" stroke-width="3" stroke-linecap="round" stroke-linejoin="round" d="M95.677,1.5
		c0,0-1.354,6.241-6.777,11.386c-5.423,5.154-6.945,12.172-8.977,17.895c-2.128,5.993-8.578,19.21-11.592,22.573
		c-2.064,2.304,0.104,5.178,2.271,4c1.503-0.825,12.063-10.982,14.098-14.64c0,0,1.762,10.976,1.22,15.727
		c-0.542,4.741-6.033,23.575-7.051,26.631c-1.013,3.049,0.342,4.28,1.458,4.568c1.562,0.412,2.542-0.3,3.423-1.726
		c0.721-1.166,10.777-30.189,12.1-29.89c1.321,0.31-0.086,4.742-2.95,18.504c-4.235,20.333-5.046,24.196-1.998,25.313
		c1.587,0.584,2.847-0.712,3.662-2.541c1.886-4.244,10.636-40.159,12.468-39.644c1.83,0.507-3.408,36.286-3.459,39.85
		c-0.066,4.774,2.171,5.993,4.407,4.98c1.159-0.524,2.34-3.658,3.626-9.866c2.036-9.804,3.66-37.411,5.082-37.411
		s1.525,30.705,4.779,31.719c3.254,1.021,3.287-3.049,3.999-8.132c0.267-1.914,1.22-31.718,0.915-39.644
		c-0.492-12.816-4.812-30.705-4.408-36.089"/>
	<path fill="none" stroke="#ffffff" stroke-width="3" stroke-linecap="round" stroke-linejoin="round" d="M32.263,1.5
		c0,0,1.354,6.241,6.777,11.386c5.423,5.154,6.945,12.172,8.977,17.895c2.128,5.993,8.578,19.21,11.592,22.573
		c2.064,2.304-0.104,5.178-2.271,4c-1.503-0.825-12.063-10.982-14.098-14.64c0,0-1.762,10.976-1.22,15.727
		c0.542,4.741,6.033,23.575,7.051,26.631c1.013,3.049-0.342,4.28-1.458,4.568c-1.562,0.412-2.542-0.3-3.423-1.726
		c-0.721-1.166-10.777-30.189-12.1-29.89c-1.321,0.31,0.086,4.742,2.95,18.504c4.235,20.333,5.046,24.196,1.998,25.313
		c-1.587,0.584-2.847-0.712-3.662-2.541c-1.886-4.244-10.636-40.159-12.468-39.644c-1.83,0.507,3.408,36.286,3.459,39.85
		c0.066,4.774-2.171,5.993-4.407,4.98c-1.159-0.524-2.34-3.658-3.626-9.866c-2.036-9.804-3.66-37.411-5.082-37.411
		S9.728,87.914,6.474,88.928c-3.254,1.021-3.287-3.049-3.999-8.132c-0.267-1.914-1.22-31.718-0.915-39.644
		C2.052,28.336,6.371,10.447,5.968,5.063"/>
</g>
</svg>
