<?xml version="1.0" encoding="utf-8"?>
<!-- Generator: Adobe Illustrator 13.0.0, SVG Export Plug-In . SVG Version: 6.00 Build 14948)  -->
<!DOCTYPE svg PUBLIC "-//W3C//DTD SVG 1.1//EN" "http://www.w3.org/Graphics/SVG/1.1/DTD/svg11.dtd">
<svg version="1.1" id="Layer_1" xmlns="http://www.w3.org/2000/svg" xmlns:xlink="http://www.w3.org/1999/xlink" x="0px" y="0px"
	 width="128px" height="96.693px" viewBox="0 0 128 96.693" enable-background="new 0 0 128 96.693" xml:space="preserve">
<g>
	<path fill="none" stroke="#ffffff" stroke-width="3" stroke-linecap="round" stroke-linejoin="round" d="M42.132,28.635
		c0,0-11.558-8.865-27.899-7.33c0,0,1.67,68.609,49.768,66.486"/>
	<path fill="none" stroke="#ffffff" stroke-width="3" stroke-linecap="round" stroke-linejoin="round" d="M21.895,59.289
		c0,0-11.908,2.329-20.395,7.989c0,0,25.012,45.269,62.5,20.513"/>
	<path fill="none" stroke="#ffffff" stroke-width="3" stroke-linecap="round" stroke-linejoin="round" d="M64,87.791
		c0,0,50.929-51.635,0-86.291C13.071,36.156,64,87.791,64,87.791"/>
	<path fill="none" stroke="#ffffff" stroke-width="3" stroke-linecap="round" stroke-linejoin="round" d="M85.868,28.635
		c0,0,11.558-8.865,27.899-7.33c0,0-1.67,68.609-49.768,66.486"/>
	<path fill="none" stroke="#ffffff" stroke-width="3" stroke-linecap="round" stroke-linejoin="round" d="M106.105,59.289
		c0,0,11.908,2.329,20.395,7.989c0,0-25.012,45.269-62.5,20.513"/>
</g>
</svg>
